<?xml version="1.0" encoding="UTF-8" standalone="no"?>
<!-- Created with Inkscape (http://www.inkscape.org/) -->

<svg
   width="43.929592mm"
   height="50.831615mm"
   viewBox="0 0 43.929592 50.831615"
   version="1.1"
   id="svg5"
   inkscape:version="1.1.2 (0a00cf5339, 2022-02-04)"
   sodipodi:docname="logo.svg"
   xmlns:inkscape="http://www.inkscape.org/namespaces/inkscape"
   xmlns:sodipodi="http://sodipodi.sourceforge.net/DTD/sodipodi-0.dtd"
   xmlns:xlink="http://www.w3.org/1999/xlink"
   xmlns="http://www.w3.org/2000/svg"
   xmlns:svg="http://www.w3.org/2000/svg">
  <sodipodi:namedview
     id="namedview7"
     pagecolor="#ffffff"
     bordercolor="#000000"
     borderopacity="0.25"
     inkscape:pageshadow="2"
     inkscape:pageopacity="0.0"
     inkscape:pagecheckerboard="0"
     inkscape:document-units="mm"
     showgrid="false"
     showguides="true"
     inkscape:guide-bbox="true"
     inkscape:zoom="1.2222752"
     inkscape:cx="213.5362"
     inkscape:cy="119.44937"
     inkscape:window-width="1920"
     inkscape:window-height="1055"
     inkscape:window-x="0"
     inkscape:window-y="32"
     inkscape:window-maximized="1"
     inkscape:current-layer="text1588"
     fit-margin-top="0"
     fit-margin-left="0"
     fit-margin-right="0"
     fit-margin-bottom="0">
    <sodipodi:guide
       position="12.717529,39.084416"
       orientation="0,-1"
       id="guide1005" />
    <sodipodi:guide
       position="22.353128,14.026527"
       orientation="0,-1"
       id="guide955" />
    <sodipodi:guide
       position="70.109863,40.852787"
       orientation="0,-1"
       id="guide1298" />
    <sodipodi:guide
       position="90.416647,12.008852"
       orientation="0,-1"
       id="guide1300" />
  </sodipodi:namedview>
  <defs
     id="defs2">
    <inkscape:perspective
       sodipodi:type="inkscape:persp3d"
       inkscape:vp_x="0 : 389.7996 : 1"
       inkscape:vp_y="0 : 999.99992 : 0"
       inkscape:vp_z="1500 : 389.7996 : 1"
       inkscape:persp3d-origin="749.99998 : 95.754155 : 1"
       id="perspective4362" />
    <clipPath
       id="clp12">
      <path
         d="m 45.315,71.927 h 12.92 v 15.867 h -12.92 z"
         id="path184"
         inkscape:connector-curvature="0" />
    </clipPath>
    <clipPath
       id="clp21">
      <path
         d="m 123.91,72.178 h 26.23 v 15.294 h -26.23 z"
         id="path592"
         inkscape:connector-curvature="0" />
    </clipPath>
    <clipPath
       id="clp9">
      <path
         d="m 413.96,49.857 h 31.76 v 8.719 h -31.76 z"
         id="path100"
         inkscape:connector-curvature="0" />
    </clipPath>
    <inkscape:perspective
       sodipodi:type="inkscape:persp3d"
       inkscape:vp_x="0 : 389.7996 : 1"
       inkscape:vp_y="0 : 999.99992 : 0"
       inkscape:vp_z="1500 : 389.7996 : 1"
       inkscape:persp3d-origin="749.99998 : 95.754155 : 1"
       id="perspective4362-5" />
    <clipPath
       id="clp12-3">
      <path
         d="m 45.315,71.927 h 12.92 v 15.867 h -12.92 z"
         id="path184-5"
         inkscape:connector-curvature="0" />
    </clipPath>
    <clipPath
       id="clp21-6">
      <path
         d="m 123.91,72.178 h 26.23 v 15.294 h -26.23 z"
         id="path592-2"
         inkscape:connector-curvature="0" />
    </clipPath>
    <clipPath
       id="clp9-9">
      <path
         d="m 413.96,49.857 h 31.76 v 8.719 h -31.76 z"
         id="path100-1"
         inkscape:connector-curvature="0" />
    </clipPath>
    <inkscape:perspective
       sodipodi:type="inkscape:persp3d"
       inkscape:vp_x="0 : 635.96801 : 1"
       inkscape:vp_y="0 : 999.99996 : 0"
       inkscape:vp_z="1500 : 635.96801 : 1"
       inkscape:persp3d-origin="750 : 341.92255 : 1"
       id="perspective4362-9" />
    <clipPath
       id="clp12-37">
      <path
         d="m 45.315,71.927 h 12.92 v 15.867 h -12.92 z"
         id="path184-4"
         inkscape:connector-curvature="0" />
    </clipPath>
    <clipPath
       id="clp21-5">
      <path
         d="m 123.91,72.178 h 26.23 v 15.294 h -26.23 z"
         id="path592-25"
         inkscape:connector-curvature="0" />
    </clipPath>
    <clipPath
       id="clp9-4">
      <path
         d="m 413.96,49.857 h 31.76 v 8.719 h -31.76 z"
         id="path100-7"
         inkscape:connector-curvature="0" />
    </clipPath>
    <inkscape:perspective
       sodipodi:type="inkscape:persp3d"
       inkscape:vp_x="0 : 635.96801 : 1"
       inkscape:vp_y="0 : 999.99996 : 0"
       inkscape:vp_z="1500 : 635.96801 : 1"
       inkscape:persp3d-origin="750 : 341.92255 : 1"
       id="perspective4362-6" />
    <clipPath
       id="clp12-8">
      <path
         d="m 45.315,71.927 h 12.92 v 15.867 h -12.92 z"
         id="path184-9"
         inkscape:connector-curvature="0" />
    </clipPath>
    <clipPath
       id="clp21-2">
      <path
         d="m 123.91,72.178 h 26.23 v 15.294 h -26.23 z"
         id="path592-6"
         inkscape:connector-curvature="0" />
    </clipPath>
    <clipPath
       id="clp9-6">
      <path
         d="m 413.96,49.857 h 31.76 v 8.719 h -31.76 z"
         id="path100-4"
         inkscape:connector-curvature="0" />
    </clipPath>
    <inkscape:perspective
       sodipodi:type="inkscape:persp3d"
       inkscape:vp_x="0 : 635.96801 : 1"
       inkscape:vp_y="0 : 999.99996 : 0"
       inkscape:vp_z="1500 : 635.96801 : 1"
       inkscape:persp3d-origin="750 : 341.92255 : 1"
       id="perspective4362-53" />
    <clipPath
       id="clp12-5">
      <path
         d="m 45.315,71.927 h 12.92 v 15.867 h -12.92 z"
         id="path184-6"
         inkscape:connector-curvature="0" />
    </clipPath>
    <clipPath
       id="clp21-29">
      <path
         d="m 123.91,72.178 h 26.23 v 15.294 h -26.23 z"
         id="path592-1"
         inkscape:connector-curvature="0" />
    </clipPath>
    <clipPath
       id="clp9-2">
      <path
         d="m 413.96,49.857 h 31.76 v 8.719 h -31.76 z"
         id="path100-70"
         inkscape:connector-curvature="0" />
    </clipPath>
    <inkscape:perspective
       sodipodi:type="inkscape:persp3d"
       inkscape:vp_x="0 : 635.96801 : 1"
       inkscape:vp_y="0 : 999.99996 : 0"
       inkscape:vp_z="1500 : 635.96801 : 1"
       inkscape:persp3d-origin="750 : 341.92255 : 1"
       id="perspective4362-5356" />
    <clipPath
       id="clp12-2">
      <path
         d="m 45.315,71.927 h 12.92 v 15.867 h -12.92 z"
         id="path184-91"
         inkscape:connector-curvature="0" />
    </clipPath>
    <clipPath
       id="clp21-27">
      <path
         d="m 123.91,72.178 h 26.23 v 15.294 h -26.23 z"
         id="path592-0"
         inkscape:connector-curvature="0" />
    </clipPath>
    <clipPath
       id="clp9-93">
      <path
         d="m 413.96,49.857 h 31.76 v 8.719 h -31.76 z"
         id="path100-6"
         inkscape:connector-curvature="0" />
    </clipPath>
    <inkscape:perspective
       sodipodi:type="inkscape:persp3d"
       inkscape:vp_x="0 : 389.7996 : 1"
       inkscape:vp_y="0 : 999.99992 : 0"
       inkscape:vp_z="1500 : 389.7996 : 1"
       inkscape:persp3d-origin="749.99998 : 95.754155 : 1"
       id="perspective4362-535" />
    <clipPath
       id="clp12-6">
      <path
         d="m 45.315,71.927 h 12.92 v 15.867 h -12.92 z"
         id="path184-2"
         inkscape:connector-curvature="0" />
    </clipPath>
    <clipPath
       id="clp21-9">
      <path
         d="m 123.91,72.178 h 26.23 v 15.294 h -26.23 z"
         id="path592-12"
         inkscape:connector-curvature="0" />
    </clipPath>
    <clipPath
       id="clp9-7">
      <path
         d="m 413.96,49.857 h 31.76 v 8.719 h -31.76 z"
         id="path100-0"
         inkscape:connector-curvature="0" />
    </clipPath>
    <inkscape:perspective
       sodipodi:type="inkscape:persp3d"
       inkscape:vp_x="0 : 389.7996 : 1"
       inkscape:vp_y="0 : 999.99992 : 0"
       inkscape:vp_z="1500 : 389.7996 : 1"
       inkscape:persp3d-origin="749.99998 : 95.754155 : 1"
       id="perspective4362-5-0" />
    <clipPath
       id="clp12-3-6">
      <path
         d="m 45.315,71.927 h 12.92 v 15.867 h -12.92 z"
         id="path184-5-2"
         inkscape:connector-curvature="0" />
    </clipPath>
    <clipPath
       id="clp21-6-6">
      <path
         d="m 123.91,72.178 h 26.23 v 15.294 h -26.23 z"
         id="path592-2-1"
         inkscape:connector-curvature="0" />
    </clipPath>
    <clipPath
       id="clp9-9-8">
      <path
         d="m 413.96,49.857 h 31.76 v 8.719 h -31.76 z"
         id="path100-1-7"
         inkscape:connector-curvature="0" />
    </clipPath>
    <inkscape:perspective
       sodipodi:type="inkscape:persp3d"
       inkscape:vp_x="0 : 635.96801 : 1"
       inkscape:vp_y="0 : 999.99996 : 0"
       inkscape:vp_z="1500 : 635.96801 : 1"
       inkscape:persp3d-origin="750 : 341.92255 : 1"
       id="perspective4362-9-9" />
    <clipPath
       id="clp12-37-2">
      <path
         d="m 45.315,71.927 h 12.92 v 15.867 h -12.92 z"
         id="path184-4-0"
         inkscape:connector-curvature="0" />
    </clipPath>
    <clipPath
       id="clp21-5-2">
      <path
         d="m 123.91,72.178 h 26.23 v 15.294 h -26.23 z"
         id="path592-25-3"
         inkscape:connector-curvature="0" />
    </clipPath>
    <clipPath
       id="clp9-4-7">
      <path
         d="m 413.96,49.857 h 31.76 v 8.719 h -31.76 z"
         id="path100-7-5"
         inkscape:connector-curvature="0" />
    </clipPath>
    <inkscape:perspective
       sodipodi:type="inkscape:persp3d"
       inkscape:vp_x="0 : 635.96801 : 1"
       inkscape:vp_y="0 : 999.99996 : 0"
       inkscape:vp_z="1500 : 635.96801 : 1"
       inkscape:persp3d-origin="750 : 341.92255 : 1"
       id="perspective4362-6-9" />
    <clipPath
       id="clp12-8-2">
      <path
         d="m 45.315,71.927 h 12.92 v 15.867 h -12.92 z"
         id="path184-9-2"
         inkscape:connector-curvature="0" />
    </clipPath>
    <clipPath
       id="clp21-2-8">
      <path
         d="m 123.91,72.178 h 26.23 v 15.294 h -26.23 z"
         id="path592-6-9"
         inkscape:connector-curvature="0" />
    </clipPath>
    <clipPath
       id="clp9-6-7">
      <path
         d="m 413.96,49.857 h 31.76 v 8.719 h -31.76 z"
         id="path100-4-3"
         inkscape:connector-curvature="0" />
    </clipPath>
    <inkscape:perspective
       sodipodi:type="inkscape:persp3d"
       inkscape:vp_x="0 : 635.96801 : 1"
       inkscape:vp_y="0 : 999.99996 : 0"
       inkscape:vp_z="1500 : 635.96801 : 1"
       inkscape:persp3d-origin="750 : 341.92255 : 1"
       id="perspective4362-53-6" />
    <clipPath
       id="clp12-5-1">
      <path
         d="m 45.315,71.927 h 12.92 v 15.867 h -12.92 z"
         id="path184-6-2"
         inkscape:connector-curvature="0" />
    </clipPath>
    <clipPath
       id="clp21-29-9">
      <path
         d="m 123.91,72.178 h 26.23 v 15.294 h -26.23 z"
         id="path592-1-3"
         inkscape:connector-curvature="0" />
    </clipPath>
    <clipPath
       id="clp9-2-1">
      <path
         d="m 413.96,49.857 h 31.76 v 8.719 h -31.76 z"
         id="path100-70-9"
         inkscape:connector-curvature="0" />
    </clipPath>
    <linearGradient
       id="linearGradient11539">
      <stop
         style="stop-color:#a963ff;stop-opacity:1"
         offset="0"
         id="stop11541" />
      <stop
         style="stop-color:#bd64ff;stop-opacity:1"
         offset="1"
         id="stop11543" />
    </linearGradient>
    <linearGradient
       id="linearGradient11529">
      <stop
         style="stop-color:#c0c0fe;stop-opacity:1"
         offset="0"
         id="stop11531" />
      <stop
         style="stop-color:#e0e0ff;stop-opacity:1"
         offset="1"
         id="stop11533" />
    </linearGradient>
    <linearGradient
       id="linearGradient11488">
      <stop
         style="stop-color:#cabafe;stop-opacity:1"
         offset="0"
         id="stop11490" />
      <stop
         style="stop-color:#e2c6fe;stop-opacity:1"
         offset="0.25"
         id="stop11498" />
      <stop
         style="stop-color:#e6c2fe;stop-opacity:1"
         offset="0.5"
         id="stop11492" />
      <stop
         style="stop-color:#e2c6fe;stop-opacity:1"
         offset="0.75"
         id="stop11496" />
      <stop
         style="stop-color:#cabafe;stop-opacity:1"
         offset="1"
         id="stop11494" />
    </linearGradient>
    <linearGradient
       id="linearGradient9526">
      <stop
         style="stop-color:#e6c2fe;stop-opacity:1"
         offset="0"
         id="stop9528" />
      <stop
         style="stop-color:#e6c2fe;stop-opacity:1"
         offset="0.5"
         id="stop10503" />
      <stop
         style="stop-color:#ffffff;stop-opacity:1"
         offset="1"
         id="stop9530" />
    </linearGradient>
    <radialGradient
       cx="73.734039"
       cy="50.603256"
       r="35.946182"
       fx="73.734039"
       fy="50.603256"
       id="radialGradient9532"
       xlink:href="#linearGradient9526"
       gradientUnits="userSpaceOnUse"
       gradientTransform="matrix(2.0284561,-0.5267922,0.1974244,0.7601988,-85.822543,28.692501)" />
    <radialGradient
       cx="71.573586"
       cy="24.316822"
       r="35.946182"
       fx="71.573586"
       fy="24.316822"
       id="radialGradient10507"
       xlink:href="#linearGradient9526"
       gradientUnits="userSpaceOnUse"
       gradientTransform="matrix(2.1903071,0.5840499,-0.3342507,1.2535082,288.20574,497.02482)" />
    <radialGradient
       cx="76.778267"
       cy="27.100716"
       r="35.946182"
       fx="76.778267"
       fy="27.100716"
       id="radialGradient10511"
       xlink:href="#linearGradient9526"
       gradientUnits="userSpaceOnUse"
       gradientTransform="matrix(1.6826994,-0.1815223,0.1391405,1.2898241,355.32971,527.89879)" />
    <linearGradient
       x1="383.5506"
       y1="572.00085"
       x2="394.12253"
       y2="546.17352"
       id="linearGradient11486"
       xlink:href="#linearGradient11488"
       gradientUnits="userSpaceOnUse" />
    <linearGradient
       x1="56.361298"
       y1="44.850391"
       x2="46.169464"
       y2="38.017338"
       id="linearGradient11535"
       xlink:href="#linearGradient11529"
       gradientUnits="userSpaceOnUse" />
    <linearGradient
       x1="359.70163"
       y1="587.71552"
       x2="376.26413"
       y2="587.71552"
       id="linearGradient11545"
       xlink:href="#linearGradient11539"
       gradientUnits="userSpaceOnUse" />
    <linearGradient
       x1="359.70163"
       y1="587.71552"
       x2="376.26413"
       y2="587.71552"
       id="linearGradient11549"
       xlink:href="#linearGradient11539"
       gradientUnits="userSpaceOnUse"
       gradientTransform="translate(69.848988,16.323405)" />
    <linearGradient
       x1="359.70163"
       y1="587.71552"
       x2="376.26413"
       y2="587.71552"
       id="linearGradient11606"
       xlink:href="#linearGradient11539"
       gradientUnits="userSpaceOnUse"
       gradientTransform="matrix(1,0,0,-1,-303.40782,680.42917)" />
    <linearGradient
       x1="359.70163"
       y1="587.71552"
       x2="376.26413"
       y2="587.71552"
       id="linearGradient11610"
       xlink:href="#linearGradient11539"
       gradientUnits="userSpaceOnUse"
       gradientTransform="translate(54.020743,98.548054)" />
  </defs>
  <g
     inkscape:label="Layer 1"
     inkscape:groupmode="layer"
     id="layer1"
     transform="translate(-186.65577,-98.20731)">
    <text
       xml:space="preserve"
       style="font-size:4.23333px;font-family:sans-serif;-inkscape-font-specification:sans-serif;fill:#fdf0e3;fill-opacity:1;stroke:#4a280d;stroke-width:15;stroke-linecap:round;stroke-linejoin:round;stroke-miterlimit:4;stroke-dasharray:none"
       x="214.69817"
       y="116.24603"
       id="text265343"><tspan
         sodipodi:role="line"
         id="tspan265341"
         style="stroke-width:15;stroke-miterlimit:4;stroke-dasharray:none"
         x="214.69817"
         y="116.24603" /></text>
    <text
       xml:space="preserve"
       style="font-size:4.23333px;font-family:sans-serif;-inkscape-font-specification:sans-serif;fill:#fdf0e3;fill-opacity:1;stroke:#4a280d;stroke-width:15;stroke-linecap:round;stroke-linejoin:round;stroke-miterlimit:4;stroke-dasharray:none"
       x="214.23691"
       y="114.62688"
       id="text268683"><tspan
         sodipodi:role="line"
         id="tspan268681"
         style="stroke-width:15"
         x="214.23691"
         y="114.62688" /></text>
    <text
       xml:space="preserve"
       style="font-size:4.23333px;font-family:sans-serif;-inkscape-font-specification:sans-serif;fill:#fdf0e3;fill-opacity:1;stroke:#4a280d;stroke-width:5;stroke-linecap:round;stroke-linejoin:round;stroke-miterlimit:4;stroke-dasharray:none"
       x="242.03822"
       y="123.46563"
       id="text270271"><tspan
         sodipodi:role="line"
         id="tspan270269"
         style="stroke-width:5;stroke-miterlimit:4;stroke-dasharray:none"
         x="242.03822"
         y="123.46563" /></text>
    <text
       xml:space="preserve"
       style="font-size:4.23333px;font-family:sans-serif;-inkscape-font-specification:sans-serif;fill:#fdf0e3;fill-opacity:1;stroke:#4a280d;stroke-width:4.99999;stroke-linecap:round;stroke-linejoin:round;stroke-miterlimit:4;stroke-dasharray:none"
       x="244.82349"
       y="125.95525"
       id="text275393"><tspan
         sodipodi:role="line"
         id="tspan275391"
         style="stroke-width:5"
         x="244.82349"
         y="125.95525" /></text>
    <g
       id="g193503"
       transform="translate(0,0.18106276)">
      <g
         id="g193548">
        <text
           xml:space="preserve"
           style="font-size:4.23333px;font-family:sans-serif;-inkscape-font-specification:sans-serif;fill:#fdf0e3;fill-opacity:1;stroke:#4a280d;stroke-width:15;stroke-linecap:round;stroke-linejoin:round;stroke-miterlimit:4;stroke-dasharray:none"
           x="264.96298"
           y="116.49283"
           id="text265343-7"><tspan
             sodipodi:role="line"
             id="tspan265341-8"
             style="stroke-width:15;stroke-miterlimit:4;stroke-dasharray:none"
             x="264.96298"
             y="116.49283" /></text>
        <text
           xml:space="preserve"
           style="font-size:4.23333px;font-family:sans-serif;-inkscape-font-specification:sans-serif;fill:#fdf0e3;fill-opacity:1;stroke:#4a280d;stroke-width:15;stroke-linecap:round;stroke-linejoin:round;stroke-miterlimit:4;stroke-dasharray:none"
           x="264.50171"
           y="114.87369"
           id="text268683-6"><tspan
             sodipodi:role="line"
             id="tspan268681-8"
             style="stroke-width:15"
             x="264.50171"
             y="114.87369" /></text>
        <text
           xml:space="preserve"
           style="font-size:4.23333px;font-family:sans-serif;-inkscape-font-specification:sans-serif;fill:#fdf0e3;fill-opacity:1;stroke:#4a280d;stroke-width:5;stroke-linecap:round;stroke-linejoin:round;stroke-miterlimit:4;stroke-dasharray:none"
           x="292.30304"
           y="123.71243"
           id="text270271-8"><tspan
             sodipodi:role="line"
             id="tspan270269-4"
             style="stroke-width:5;stroke-miterlimit:4;stroke-dasharray:none"
             x="292.30304"
             y="123.71243" /></text>
        <text
           xml:space="preserve"
           style="font-size:4.23333px;font-family:sans-serif;-inkscape-font-specification:sans-serif;fill:#fdf0e3;fill-opacity:1;stroke:#4a280d;stroke-width:4.99999;stroke-linecap:round;stroke-linejoin:round;stroke-miterlimit:4;stroke-dasharray:none"
           x="295.08829"
           y="126.20206"
           id="text275393-3"><tspan
             sodipodi:role="line"
             id="tspan275391-1"
             style="stroke-width:5"
             x="295.08829"
             y="126.20206" /></text>
        <path
           sodipodi:type="star"
           style="fill:#333333;fill-opacity:1;stroke:#00f0ff;stroke-width:73.9932;stroke-miterlimit:4;stroke-dasharray:none;stroke-opacity:1"
           id="path4560"
           sodipodi:sides="6"
           sodipodi:cx="-5551.2134"
           sodipodi:cy="-204.52565"
           sodipodi:r1="1701.6108"
           sodipodi:r2="1473.6381"
           sodipodi:arg1="1.0471976"
           sodipodi:arg2="1.5707963"
           inkscape:flatsided="true"
           inkscape:rounded="0"
           inkscape:randomized="0"
           inkscape:transform-center-x="1.5731476e-05"
           inkscape:transform-center-y="7.9344316e-05"
           transform="matrix(0,0.01457052,-0.01454011,0,205.64675,204.32612)"
           d="m -4700.408,1269.1126 -1701.6109,-10e-5 -850.8053,-1473.63823 850.8055,-1473.63817 1701.6108,10e-5 850.8054,1473.63823 z" />
        <g
           aria-label="cpp11tesseract"
           id="text1588"
           style="font-size:4.93889px;font-family:'Futura Condensed Extra';-inkscape-font-specification:'Futura Condensed Extra';fill:#ffffff;stroke-width:0.755999;stroke-linecap:round;stroke-linejoin:round">
          <path
             d="m 192.60133,134.84181 q -0.43956,0 -0.7112,-0.24695 -0.27164,-0.24694 -0.27164,-0.74083 0,-0.3556 0.0938,-0.67169 0.0988,-0.32103 0.27658,-0.56303 0.18274,-0.24201 0.43956,-0.3803 0.25682,-0.14322 0.57291,-0.14322 0.17286,0 0.34572,0.0346 0.17286,0.0346 0.31115,0.0938 l -0.12347,0.36054 q -0.0988,-0.0445 -0.23707,-0.084 -0.13335,-0.0395 -0.29139,-0.0395 -0.28152,0 -0.49389,0.19262 -0.21237,0.18768 -0.33091,0.50377 -0.11853,0.31609 -0.11853,0.69144 0,0.30127 0.15311,0.4692 0.15804,0.16298 0.42968,0.16298 0.17286,0 0.32597,-0.0494 0.15804,-0.0494 0.31115,-0.11359 v 0.36547 q -0.13829,0.0692 -0.31115,0.1136 -0.16793,0.0445 -0.37042,0.0445 z"
             style="font-style:italic;font-family:'Noto Sans';-inkscape-font-specification:'Noto Sans Italic'"
             id="path87452" />
          <path
             d="m 193.51008,135.97775 0.80998,-3.83258 h 0.3556 l -0.0593,0.49389 h 0.0198 q 0.17286,-0.21731 0.39017,-0.37535 0.21731,-0.16299 0.49389,-0.16299 0.32103,0 0.51858,0.22719 0.19756,0.22719 0.19756,0.67663 0,0.36054 -0.0889,0.69145 -0.0889,0.3309 -0.25682,0.59266 -0.16793,0.25682 -0.40993,0.40499 -0.23707,0.14817 -0.5334,0.14817 -0.2667,0 -0.42969,-0.13335 -0.16298,-0.13829 -0.24694,-0.32103 h -0.0247 q -0.005,0.079 -0.0247,0.22225 -0.0198,0.13829 -0.0395,0.22719 l -0.24201,1.14088 z m 1.40265,-1.49648 q 0.19755,0 0.36053,-0.12347 0.16299,-0.12841 0.27658,-0.34079 0.11854,-0.21237 0.1778,-0.47907 0.0642,-0.2667 0.0642,-0.54328 0,-0.5334 -0.41981,-0.5334 -0.16298,0 -0.33584,0.12348 -0.16792,0.11853 -0.31115,0.32596 -0.14323,0.20744 -0.23213,0.47414 -0.084,0.2667 -0.084,0.56303 0,0.23707 0.12347,0.38523 0.12347,0.14817 0.3803,0.14817 z"
             style="font-style:italic;font-family:'Noto Sans';-inkscape-font-specification:'Noto Sans Italic'"
             id="path87454" />
          <path
             d="m 196.36969,135.97775 0.80998,-3.83258 h 0.3556 l -0.0593,0.49389 h 0.0198 q 0.17286,-0.21731 0.39017,-0.37535 0.21731,-0.16299 0.49389,-0.16299 0.32103,0 0.51858,0.22719 0.19756,0.22719 0.19756,0.67663 0,0.36054 -0.0889,0.69145 -0.0889,0.3309 -0.25682,0.59266 -0.16793,0.25682 -0.40993,0.40499 -0.23707,0.14817 -0.5334,0.14817 -0.2667,0 -0.42969,-0.13335 -0.16298,-0.13829 -0.24694,-0.32103 h -0.0247 q -0.005,0.079 -0.0247,0.22225 -0.0198,0.13829 -0.0395,0.22719 l -0.24201,1.14088 z m 1.40265,-1.49648 q 0.19755,0 0.36053,-0.12347 0.16299,-0.12841 0.27658,-0.34079 0.11854,-0.21237 0.1778,-0.47907 0.0642,-0.2667 0.0642,-0.54328 0,-0.5334 -0.41981,-0.5334 -0.16298,0 -0.33584,0.12348 -0.16792,0.11853 -0.31115,0.32596 -0.14323,0.20744 -0.23213,0.47414 -0.084,0.2667 -0.084,0.56303 0,0.23707 0.12347,0.38523 0.12347,0.14817 0.3803,0.14817 z"
             style="font-style:italic;font-family:'Noto Sans';-inkscape-font-specification:'Noto Sans Italic'"
             id="path87456" />
          <path
             d="m 200.80481,132.60943 q 0.0494,-0.23213 0.10371,-0.46919 0.0593,-0.23707 0.10372,-0.3803 -0.0741,0.079 -0.1531,0.13829 -0.079,0.0593 -0.1778,0.12347 l -0.43463,0.27164 -0.20249,-0.32597 1.10631,-0.70132 h 0.38029 l -0.75565,3.52637 h -0.43956 z"
             style="font-style:italic;font-family:'Noto Sans';-inkscape-font-specification:'Noto Sans Italic'"
             id="path87458" />
          <path
             d="m 203.52613,132.60943 q 0.0494,-0.23213 0.10372,-0.46919 0.0593,-0.23707 0.10371,-0.3803 -0.0741,0.079 -0.1531,0.13829 -0.079,0.0593 -0.1778,0.12347 l -0.43462,0.27164 -0.2025,-0.32597 1.10631,-0.70132 h 0.3803 l -0.75565,3.52637 h -0.43956 z"
             style="font-style:italic;font-family:'Noto Sans';-inkscape-font-specification:'Noto Sans Italic'"
             id="path87460" />
          <path
             d="m 206.08447,134.48621 q 0.0988,0 0.20249,-0.0148 0.10372,-0.0198 0.16793,-0.0395 v 0.33091 q -0.0692,0.0346 -0.19756,0.0543 -0.12841,0.0247 -0.24694,0.0247 -0.20744,0 -0.38524,-0.0692 -0.17286,-0.0741 -0.28152,-0.25188 -0.10865,-0.1778 -0.10865,-0.49883 v -1.54093 h -0.37536 v -0.20743 l 0.3803,-0.17287 0.17286,-0.56303 h 0.25682 v 0.60748 h 0.76553 v 0.33585 h -0.76553 v 1.53105 q 0,0.24201 0.1136,0.36054 0.11853,0.1136 0.30127,0.1136 z"
             style="font-family:'Noto Sans';-inkscape-font-specification:'Noto Sans';stroke-width:0.756"
             id="path87462" />
          <path
             d="m 208.00569,132.09579 q 0.34078,0 0.58279,0.14816 0.24694,0.14817 0.37535,0.41981 0.13335,0.2667 0.13335,0.62724 v 0.26176 h -1.81257 q 0.01,0.44944 0.22719,0.6865 0.22225,0.23213 0.61736,0.23213 0.25188,0 0.4445,-0.0445 0.19755,-0.0494 0.40499,-0.13829 v 0.3803 q -0.2025,0.0889 -0.40005,0.12841 -0.19756,0.0445 -0.4692,0.0445 -0.37535,0 -0.66675,-0.15311 -0.28645,-0.1531 -0.44944,-0.45438 -0.15804,-0.30621 -0.15804,-0.74577 0,-0.43462 0.14323,-0.74577 0.14816,-0.31115 0.40993,-0.47907 0.2667,-0.16792 0.61736,-0.16792 z m -0.005,0.3556 q -0.31115,0 -0.49389,0.20249 -0.1778,0.19756 -0.21237,0.55316 h 1.34831 q -0.005,-0.33585 -0.15804,-0.54328 -0.15311,-0.21237 -0.48401,-0.21237 z"
             style="font-family:'Noto Sans';-inkscape-font-specification:'Noto Sans';stroke-width:0.756"
             id="path87464" />
          <path
             d="m 211.49254,134.06146 q 0,0.38524 -0.28646,0.58279 -0.28645,0.19756 -0.77046,0.19756 -0.27658,0 -0.47908,-0.0445 -0.19755,-0.0444 -0.35066,-0.12347 v -0.39512 q 0.15805,0.079 0.3803,0.14817 0.22719,0.0642 0.45931,0.0642 0.33091,0 0.47908,-0.10372 0.14816,-0.10866 0.14816,-0.28646 0,-0.0988 -0.0543,-0.1778 -0.0543,-0.079 -0.19755,-0.15804 -0.13829,-0.079 -0.40005,-0.1778 -0.25682,-0.0988 -0.43956,-0.19756 -0.18274,-0.0988 -0.28152,-0.23706 -0.0988,-0.13829 -0.0988,-0.3556 0,-0.33585 0.27164,-0.51859 0.27658,-0.18273 0.72108,-0.18273 0.24201,0 0.44944,0.0494 0.21237,0.0444 0.39511,0.12842 l -0.14817,0.34572 q -0.16792,-0.0692 -0.35066,-0.11854 -0.18274,-0.0494 -0.37535,-0.0494 -0.2667,0 -0.40993,0.0889 -0.13829,0.084 -0.13829,0.23212 0,0.10866 0.0642,0.18768 0.0642,0.0741 0.21237,0.14817 0.1531,0.0691 0.40499,0.16792 0.25188,0.0938 0.42968,0.19262 0.1778,0.0988 0.27164,0.242 0.0938,0.13829 0.0938,0.35066 z"
             style="font-family:'Noto Sans';-inkscape-font-specification:'Noto Sans';stroke-width:0.756"
             id="path87466" />
          <path
             d="m 213.85826,134.06146 q 0,0.38524 -0.28646,0.58279 -0.28645,0.19756 -0.77046,0.19756 -0.27658,0 -0.47908,-0.0445 -0.19755,-0.0444 -0.35066,-0.12347 v -0.39512 q 0.15805,0.079 0.3803,0.14817 0.22719,0.0642 0.45931,0.0642 0.33091,0 0.47908,-0.10372 0.14816,-0.10866 0.14816,-0.28646 0,-0.0988 -0.0543,-0.1778 -0.0543,-0.079 -0.19756,-0.15804 -0.13829,-0.079 -0.40005,-0.1778 -0.25682,-0.0988 -0.43956,-0.19756 -0.18274,-0.0988 -0.28152,-0.23706 -0.0988,-0.13829 -0.0988,-0.3556 0,-0.33585 0.27164,-0.51859 0.27658,-0.18273 0.72108,-0.18273 0.24201,0 0.44944,0.0494 0.21237,0.0444 0.39511,0.12842 l -0.14817,0.34572 q -0.16792,-0.0692 -0.35066,-0.11854 -0.18274,-0.0494 -0.37535,-0.0494 -0.2667,0 -0.40993,0.0889 -0.13829,0.084 -0.13829,0.23212 0,0.10866 0.0642,0.18768 0.0642,0.0741 0.21237,0.14817 0.1531,0.0691 0.40499,0.16792 0.25188,0.0938 0.42968,0.19262 0.1778,0.0988 0.27164,0.242 0.0938,0.13829 0.0938,0.35066 z"
             style="font-family:'Noto Sans';-inkscape-font-specification:'Noto Sans';stroke-width:0.756"
             id="path87468" />
          <path
             d="m 215.52266,132.09579 q 0.34078,0 0.58278,0.14816 0.24695,0.14817 0.37536,0.41981 0.13335,0.2667 0.13335,0.62724 v 0.26176 h -1.81257 q 0.01,0.44944 0.22719,0.6865 0.22225,0.23213 0.61736,0.23213 0.25188,0 0.4445,-0.0445 0.19755,-0.0494 0.40499,-0.13829 v 0.3803 q -0.2025,0.0889 -0.40005,0.12841 -0.19756,0.0445 -0.4692,0.0445 -0.37535,0 -0.66675,-0.15311 -0.28645,-0.1531 -0.44944,-0.45438 -0.15804,-0.30621 -0.15804,-0.74577 0,-0.43462 0.14323,-0.74577 0.14816,-0.31115 0.40992,-0.47907 0.2667,-0.16792 0.61737,-0.16792 z m -0.005,0.3556 q -0.31115,0 -0.49389,0.20249 -0.1778,0.19756 -0.21237,0.55316 h 1.34831 q -0.005,-0.33585 -0.15804,-0.54328 -0.15311,-0.21237 -0.48401,-0.21237 z"
             style="font-family:'Noto Sans';-inkscape-font-specification:'Noto Sans';stroke-width:0.756"
             id="path87470" />
          <path
             d="m 218.52056,132.09579 q 0.0741,0 0.15804,0.01 0.0889,0.005 0.15311,0.0198 l -0.0543,0.40005 q -0.0642,-0.0148 -0.14323,-0.0247 -0.0741,-0.01 -0.14323,-0.01 -0.20249,0 -0.38029,0.11359 -0.1778,0.10866 -0.28646,0.31115 -0.10371,0.19756 -0.10371,0.46426 v 1.41252 h -0.43462 v -2.64725 h 0.3556 l 0.0494,0.48402 h 0.0198 q 0.12841,-0.21732 0.33091,-0.37536 0.20249,-0.15804 0.47907,-0.15804 z"
             style="font-family:'Noto Sans';-inkscape-font-specification:'Noto Sans';stroke-width:0.756"
             id="path87472" />
          <path
             d="m 220.2294,132.10072 q 0.48401,0 0.71614,0.21238 0.23213,0.21237 0.23213,0.67662 v 1.8027 h -0.31609 l -0.084,-0.37536 h -0.0198 q -0.17286,0.21731 -0.36547,0.32103 -0.18768,0.10372 -0.52353,0.10372 -0.36053,0 -0.5976,-0.18768 -0.23707,-0.19262 -0.23707,-0.59761 0,-0.39511 0.31115,-0.60748 0.31115,-0.21731 0.95815,-0.23707 l 0.44944,-0.0148 v -0.15805 q 0,-0.3309 -0.14323,-0.45931 -0.14323,-0.12841 -0.40499,-0.12841 -0.20743,0 -0.39511,0.0642 -0.18768,0.0593 -0.35066,0.13829 l -0.13335,-0.32597 q 0.17286,-0.0938 0.40992,-0.15804 0.23707,-0.0692 0.49389,-0.0692 z m 0.12841,1.41253 q -0.49388,0.0197 -0.6865,0.15804 -0.18768,0.13829 -0.18768,0.39017 0,0.22225 0.13335,0.32597 0.13829,0.10372 0.35066,0.10372 0.33585,0 0.5581,-0.18274 0.22225,-0.18768 0.22225,-0.57291 v -0.23707 z"
             style="font-family:'Noto Sans';-inkscape-font-specification:'Noto Sans';stroke-width:0.756"
             id="path87474" />
          <path
             d="m 223.05938,134.84181 q -0.35066,0 -0.62724,-0.14323 -0.27164,-0.14323 -0.42968,-0.4445 -0.15311,-0.30127 -0.15311,-0.77047 0,-0.48895 0.16299,-0.79516 0.16298,-0.30621 0.43956,-0.44944 0.28151,-0.14322 0.63711,-0.14322 0.2025,0 0.39018,0.0445 0.18767,0.0395 0.30621,0.0988 l -0.13335,0.36054 q -0.11854,-0.0444 -0.27658,-0.084 -0.15805,-0.0395 -0.29633,-0.0395 -0.78035,0 -0.78035,1.00259 0,0.47908 0.18768,0.7359 0.19262,0.25188 0.56797,0.25188 0.21731,0 0.3803,-0.0445 0.16792,-0.0444 0.30621,-0.10865 v 0.38523 q -0.13335,0.0691 -0.29634,0.10372 -0.15804,0.0395 -0.38523,0.0395 z"
             style="font-family:'Noto Sans';-inkscape-font-specification:'Noto Sans';stroke-width:0.756"
             id="path87476" />
          <path
             d="m 225.25225,134.48621 q 0.0988,0 0.20249,-0.0148 0.10372,-0.0198 0.16792,-0.0395 v 0.33091 q -0.0691,0.0346 -0.19755,0.0543 -0.12841,0.0247 -0.24695,0.0247 -0.20743,0 -0.38523,-0.0692 -0.17286,-0.0741 -0.28152,-0.25188 -0.10865,-0.1778 -0.10865,-0.49883 v -1.54093 h -0.37536 v -0.20743 l 0.3803,-0.17287 0.17286,-0.56303 h 0.25682 v 0.60748 h 0.76553 v 0.33585 h -0.76553 v 1.53105 q 0,0.24201 0.11359,0.36054 0.11854,0.1136 0.30128,0.1136 z"
             style="font-family:'Noto Sans';-inkscape-font-specification:'Noto Sans';stroke-width:0.756"
             id="path87478" />
        </g>
        <path
           d="m 199.31178,123.454 -0.31209,-5.67662 2.08463,-1.83756 0.41842,5.82747 z"
           style="fill:#2affd4;fill-opacity:1;fill-rule:evenodd;stroke:#000000;stroke-width:0.106841px;stroke-linecap:butt;stroke-linejoin:bevel;stroke-opacity:1"
           id="path9524" />
        <path
           d="m 204.17727,115.92279 -0.3735,-4.47815 2.33495,-1.63989 0.59919,6.20392 z"
           style="fill:#2affd4;fill-opacity:1;fill-rule:evenodd;stroke:#000000;stroke-width:0.106841px;stroke-linecap:butt;stroke-linejoin:miter;stroke-opacity:1"
           id="path10509" />
        <path
           d="m 205.4017,129.27757 -0.44742,-5.97627 2.20515,-1.62989 0.44742,5.94431 z"
           style="fill:#2affd4;fill-opacity:1;fill-rule:evenodd;stroke:#000000;stroke-width:0.106841px;stroke-linecap:butt;stroke-linejoin:miter;stroke-opacity:1"
           id="path10513" />
        <path
           d="m 199.28229,123.49245 h 5.41216 l 2.42603,-1.70664 -5.57205,-0.0439 z"
           style="fill:#00ffff;fill-opacity:1;stroke:#000000;stroke-width:0.106841;stroke-linecap:round;stroke-linejoin:bevel;stroke-miterlimit:4;stroke-dasharray:none;stroke-dashoffset:0;stroke-opacity:1"
           id="rect11500" />
        <path
           d="m 202.64778,125.10174 h 2.44064 l -0.13355,-1.78608 z"
           style="fill:#00ffff;fill-opacity:1;fill-rule:evenodd;stroke:#000000;stroke-width:0.106841px;stroke-linecap:butt;stroke-linejoin:bevel;stroke-opacity:1"
           id="path11511" />
        <path
           d="m 202.51089,123.49245 0.1636,1.58925 2.01996,-1.58925 z"
           style="fill:#2affd4;fill-opacity:1;fill-rule:evenodd;stroke:#000000;stroke-width:0.106841px;stroke-linecap:butt;stroke-linejoin:bevel;stroke-opacity:1"
           id="path11519" />
        <path
           d="m 205.4066,129.33284 h 5.61495 l 0.36059,-0.2838 0.003,0.0167 1.88641,-1.39561 h -5.69207 z"
           style="fill:#0efff0;fill-opacity:1;stroke:#000000;stroke-width:0.106841;stroke-linecap:round;stroke-linejoin:bevel;stroke-miterlimit:4;stroke-dasharray:none;stroke-dashoffset:0;stroke-opacity:1"
           id="path11537" />
        <path
           d="m 207.09653,121.81603 h 5.60143 l 2.31793,-1.60863 h -5.74615 z"
           style="fill:#0efff0;fill-opacity:1;stroke:#000000;stroke-width:0.106841;stroke-linecap:round;stroke-linejoin:bevel;stroke-miterlimit:4;stroke-dasharray:none;stroke-dashoffset:0;stroke-opacity:1"
           id="path11547" />
        <path
           d="m 207.57915,127.66926 h 5.64922 l -0.53755,-5.85288 h -5.52234 l 0.43738,5.79946 z"
           style="fill:#00f0ff;fill-opacity:1;fill-rule:evenodd;stroke:#000000;stroke-width:0.106841px;stroke-linecap:butt;stroke-linejoin:miter;stroke-opacity:1"
           id="path11551" />
        <path
           d="m 201.1092,115.95348 0.3929,5.79946 0.0372,0.0534 5.58912,-0.007 -0.26377,-3.50237 -0.21368,-2.34383 z"
           style="fill:#00f0ff;fill-opacity:1;fill-rule:evenodd;stroke:#000000;stroke-width:0.106841px;stroke-linecap:butt;stroke-linejoin:miter;stroke-opacity:1"
           id="path11564" />
        <path
           d="m 206.1368,109.80345 0.48078,6.01982 -0.0267,0.0534 h 0.0935 l -0.003,-0.0534 2.22363,-1.58258 h 3.17851 l -0.42402,-4.43724 z"
           style="fill:#00f0ff;fill-opacity:1;fill-rule:evenodd;stroke:#000000;stroke-width:0.106841px;stroke-linecap:butt;stroke-linejoin:miter;stroke-opacity:1"
           id="path11574" />
        <path
           d="m 209.35811,120.20204 h 5.64921 l -0.58146,-5.96269 h -5.5465 z"
           style="fill:#00f0ff;fill-opacity:1;fill-rule:evenodd;stroke:#000000;stroke-width:0.106841px;stroke-linecap:butt;stroke-linejoin:miter;stroke-opacity:1"
           id="path11579" />
        <path
           d="m 212.54726,120.20709 h 2.46735 l -2.31711,1.60929 h -0.0501 l -0.0167,0.0334 h 5.60581 l -0.51751,-5.96306 h -3.13177 l 0.42068,4.3137 h -2.46067 z"
           style="fill:#00f0ff;fill-opacity:1;fill-rule:evenodd;stroke:#000000;stroke-width:0.106841px;stroke-linecap:butt;stroke-linejoin:miter;stroke-opacity:1"
           id="path11584" />
        <path
           d="m 212.6975,121.89985 0.14691,1.60595 h 3.01491 l 2.34049,-1.60595 z"
           style="fill:#0efff0;fill-opacity:1;stroke:#000000;stroke-width:0.106841;stroke-linecap:round;stroke-linejoin:bevel;stroke-miterlimit:4;stroke-dasharray:none;stroke-dashoffset:0;stroke-opacity:1"
           id="path11604" />
        <path
           d="m 207.12747,121.79924 -0.44742,-5.97627 2.20515,-1.59607 0.44742,5.91049 z"
           style="fill:#2affd4;fill-opacity:1;fill-rule:evenodd;stroke:#000000;stroke-width:0.106841px;stroke-linecap:butt;stroke-linejoin:bevel;stroke-opacity:1"
           id="path10505" />
        <text
           xml:space="preserve"
           style="font-size:5.64444px;font-family:'Futura Condensed Extra';-inkscape-font-specification:'Futura Condensed Extra';fill:#ffffff;stroke-width:0.755999;stroke-linecap:round;stroke-linejoin:round"
           x="211.62088"
           y="126.807"
           id="text20118"><tspan
             sodipodi:role="line"
             style="fill:#000000;stroke-width:0.756"
             x="211.62088"
             y="126.807"
             id="tspan20116" /></text>
      </g>
    </g>
  </g>
  <style
     type="text/css"
     id="style10296">
	.st0{fill:#75AADB;}
	.st1{fill:#4D4D4D;}
	.st2{fill:#FFFFFF;}
	.st3{fill:url(#SVGID_1_);}
	.st4{fill:url(#SVGID_2_);}
	.st5{fill:url(#SVGID_3_);}
	.st6{fill:url(#SVGID_4_);}
	.st7{fill:url(#SVGID_5_);}
	.st8{fill:url(#SVGID_6_);}
	.st9{fill:url(#SVGID_7_);}
	.st10{fill:url(#SVGID_8_);}
	.st11{fill:url(#SVGID_9_);}
	.st12{fill:url(#SVGID_10_);}
	.st13{opacity:0.18;fill:url(#SVGID_11_);}
	.st14{opacity:0.3;}
</style>
  <style
     type="text/css"
     id="style10296-7">
	.st0{fill:#75AADB;}
	.st1{fill:#4D4D4D;}
	.st2{fill:#FFFFFF;}
	.st3{fill:url(#SVGID_1_);}
	.st4{fill:url(#SVGID_2_);}
	.st5{fill:url(#SVGID_3_);}
	.st6{fill:url(#SVGID_4_);}
	.st7{fill:url(#SVGID_5_);}
	.st8{fill:url(#SVGID_6_);}
	.st9{fill:url(#SVGID_7_);}
	.st10{fill:url(#SVGID_8_);}
	.st11{fill:url(#SVGID_9_);}
	.st12{fill:url(#SVGID_10_);}
	.st13{opacity:0.18;fill:url(#SVGID_11_);}
	.st14{opacity:0.3;}
</style>
  <style
     type="text/css"
     id="style10296-4">
	.st0{fill:#75AADB;}
	.st1{fill:#4D4D4D;}
	.st2{fill:#FFFFFF;}
	.st3{fill:url(#SVGID_1_);}
	.st4{fill:url(#SVGID_2_);}
	.st5{fill:url(#SVGID_3_);}
	.st6{fill:url(#SVGID_4_);}
	.st7{fill:url(#SVGID_5_);}
	.st8{fill:url(#SVGID_6_);}
	.st9{fill:url(#SVGID_7_);}
	.st10{fill:url(#SVGID_8_);}
	.st11{fill:url(#SVGID_9_);}
	.st12{fill:url(#SVGID_10_);}
	.st13{opacity:0.18;fill:url(#SVGID_11_);}
	.st14{opacity:0.3;}
</style>
  <style
     type="text/css"
     id="style10296-9">
	.st0{fill:#75AADB;}
	.st1{fill:#4D4D4D;}
	.st2{fill:#FFFFFF;}
	.st3{fill:url(#SVGID_1_);}
	.st4{fill:url(#SVGID_2_);}
	.st5{fill:url(#SVGID_3_);}
	.st6{fill:url(#SVGID_4_);}
	.st7{fill:url(#SVGID_5_);}
	.st8{fill:url(#SVGID_6_);}
	.st9{fill:url(#SVGID_7_);}
	.st10{fill:url(#SVGID_8_);}
	.st11{fill:url(#SVGID_9_);}
	.st12{fill:url(#SVGID_10_);}
	.st13{opacity:0.18;fill:url(#SVGID_11_);}
	.st14{opacity:0.3;}
</style>
  <style
     type="text/css"
     id="style10296-2">
	.st0{fill:#75AADB;}
	.st1{fill:#4D4D4D;}
	.st2{fill:#FFFFFF;}
	.st3{fill:url(#SVGID_1_);}
	.st4{fill:url(#SVGID_2_);}
	.st5{fill:url(#SVGID_3_);}
	.st6{fill:url(#SVGID_4_);}
	.st7{fill:url(#SVGID_5_);}
	.st8{fill:url(#SVGID_6_);}
	.st9{fill:url(#SVGID_7_);}
	.st10{fill:url(#SVGID_8_);}
	.st11{fill:url(#SVGID_9_);}
	.st12{fill:url(#SVGID_10_);}
	.st13{opacity:0.18;fill:url(#SVGID_11_);}
	.st14{opacity:0.3;}
</style>
  <style
     type="text/css"
     id="style10296-6">
	.st0{fill:#75AADB;}
	.st1{fill:#4D4D4D;}
	.st2{fill:#FFFFFF;}
	.st3{fill:url(#SVGID_1_);}
	.st4{fill:url(#SVGID_2_);}
	.st5{fill:url(#SVGID_3_);}
	.st6{fill:url(#SVGID_4_);}
	.st7{fill:url(#SVGID_5_);}
	.st8{fill:url(#SVGID_6_);}
	.st9{fill:url(#SVGID_7_);}
	.st10{fill:url(#SVGID_8_);}
	.st11{fill:url(#SVGID_9_);}
	.st12{fill:url(#SVGID_10_);}
	.st13{opacity:0.18;fill:url(#SVGID_11_);}
	.st14{opacity:0.3;}
</style>
  <style
     type="text/css"
     id="style10296-3">
	.st0{fill:#75AADB;}
	.st1{fill:#4D4D4D;}
	.st2{fill:#FFFFFF;}
	.st3{fill:url(#SVGID_1_);}
	.st4{fill:url(#SVGID_2_);}
	.st5{fill:url(#SVGID_3_);}
	.st6{fill:url(#SVGID_4_);}
	.st7{fill:url(#SVGID_5_);}
	.st8{fill:url(#SVGID_6_);}
	.st9{fill:url(#SVGID_7_);}
	.st10{fill:url(#SVGID_8_);}
	.st11{fill:url(#SVGID_9_);}
	.st12{fill:url(#SVGID_10_);}
	.st13{opacity:0.18;fill:url(#SVGID_11_);}
	.st14{opacity:0.3;}
</style>
  <style
     type="text/css"
     id="style10296-7-1">
	.st0{fill:#75AADB;}
	.st1{fill:#4D4D4D;}
	.st2{fill:#FFFFFF;}
	.st3{fill:url(#SVGID_1_);}
	.st4{fill:url(#SVGID_2_);}
	.st5{fill:url(#SVGID_3_);}
	.st6{fill:url(#SVGID_4_);}
	.st7{fill:url(#SVGID_5_);}
	.st8{fill:url(#SVGID_6_);}
	.st9{fill:url(#SVGID_7_);}
	.st10{fill:url(#SVGID_8_);}
	.st11{fill:url(#SVGID_9_);}
	.st12{fill:url(#SVGID_10_);}
	.st13{opacity:0.18;fill:url(#SVGID_11_);}
	.st14{opacity:0.3;}
</style>
  <style
     type="text/css"
     id="style10296-4-5">
	.st0{fill:#75AADB;}
	.st1{fill:#4D4D4D;}
	.st2{fill:#FFFFFF;}
	.st3{fill:url(#SVGID_1_);}
	.st4{fill:url(#SVGID_2_);}
	.st5{fill:url(#SVGID_3_);}
	.st6{fill:url(#SVGID_4_);}
	.st7{fill:url(#SVGID_5_);}
	.st8{fill:url(#SVGID_6_);}
	.st9{fill:url(#SVGID_7_);}
	.st10{fill:url(#SVGID_8_);}
	.st11{fill:url(#SVGID_9_);}
	.st12{fill:url(#SVGID_10_);}
	.st13{opacity:0.18;fill:url(#SVGID_11_);}
	.st14{opacity:0.3;}
</style>
  <style
     type="text/css"
     id="style10296-9-5">
	.st0{fill:#75AADB;}
	.st1{fill:#4D4D4D;}
	.st2{fill:#FFFFFF;}
	.st3{fill:url(#SVGID_1_);}
	.st4{fill:url(#SVGID_2_);}
	.st5{fill:url(#SVGID_3_);}
	.st6{fill:url(#SVGID_4_);}
	.st7{fill:url(#SVGID_5_);}
	.st8{fill:url(#SVGID_6_);}
	.st9{fill:url(#SVGID_7_);}
	.st10{fill:url(#SVGID_8_);}
	.st11{fill:url(#SVGID_9_);}
	.st12{fill:url(#SVGID_10_);}
	.st13{opacity:0.18;fill:url(#SVGID_11_);}
	.st14{opacity:0.3;}
</style>
  <style
     type="text/css"
     id="style10296-2-4">
	.st0{fill:#75AADB;}
	.st1{fill:#4D4D4D;}
	.st2{fill:#FFFFFF;}
	.st3{fill:url(#SVGID_1_);}
	.st4{fill:url(#SVGID_2_);}
	.st5{fill:url(#SVGID_3_);}
	.st6{fill:url(#SVGID_4_);}
	.st7{fill:url(#SVGID_5_);}
	.st8{fill:url(#SVGID_6_);}
	.st9{fill:url(#SVGID_7_);}
	.st10{fill:url(#SVGID_8_);}
	.st11{fill:url(#SVGID_9_);}
	.st12{fill:url(#SVGID_10_);}
	.st13{opacity:0.18;fill:url(#SVGID_11_);}
	.st14{opacity:0.3;}
</style>
</svg>
